<svg width="177" height="113" viewBox="0 0 177 113" fill="none" xmlns="http://www.w3.org/2000/svg">
<g id="Sophia">
<g id="Group">
<path id="Vector" d="M82.947 112.49C79.6212 112.49 76.9229 109.796 76.9229 106.466V96.313H88.967V106.466C88.967 109.792 86.2728 112.49 82.947 112.49Z" fill="#FFA124"/>
<path id="Vector_2" d="M94.991 112.49C91.6651 112.49 88.9668 109.796 88.9668 106.466V96.313H101.011V106.466C101.011 109.792 98.3168 112.49 94.991 112.49Z" fill="#FFA124"/>
<path id="Vector_3" d="M88.682 106.617C77.9432 106.587 67.8945 103.333 59.5737 97.7729C56.2855 95.5766 53.2567 93.0247 50.5458 90.1632C41.5305 80.6668 36 67.8279 36 53.7255C36 48.1406 36.8702 42.7147 38.4766 37.636C39.1418 35.5317 40.0287 33.5069 40.9867 31.5156C42.911 27.5121 44.1452 22.4878 44.1452 18.1286C44.1452 12.7613 40.9281 8.07162 43.5846 4.01786C45.8938 0.495408 50.9391 0.00176662 55.0305 0.989058C62.3431 2.7461 66.8236 7.82479 73.5924 11.113C76.6128 12.5772 79.8006 13.5519 83.0721 14.1836C86.7744 14.899 90.5897 14.899 94.292 14.1836C97.5677 13.5519 100.755 12.5772 103.772 11.113C110.536 7.82479 115.017 2.7461 122.334 0.989058C126.425 0.00176662 131.47 0.495408 133.78 4.01786C136.436 8.07162 133.219 12.0375 133.219 18.1286C133.219 22.4878 134.449 27.5121 136.377 31.5156C137.331 33.5069 138.222 35.5317 138.887 37.636C140.498 42.7188 141.364 48.1406 141.364 53.7255C141.364 67.8279 135.834 80.6668 126.818 90.1632C124.107 93.0205 121.074 95.5766 117.79 97.7729C109.47 103.333 99.4209 106.587 88.682 106.617Z" fill="url(#paint0_linear_611_5763)"/>
</g>
<path id="Vector_4" d="M90.071 11.9914C87.6069 16.0703 83.6117 18.1704 81.1519 16.681C78.692 15.1959 78.6962 10.682 81.1602 6.60315C83.6243 2.52429 87.6195 0.424212 90.0793 1.91352C92.5392 3.40282 92.535 7.91257 90.071 11.9914Z" fill="url(#paint1_linear_611_5763)"/>
<path id="Vector_5" d="M92.724 16.2248C89.6073 17.392 86.5116 16.8147 85.8046 14.9363C85.0976 13.058 87.0554 10.5856 90.1721 9.41839C93.2887 8.25121 96.3845 8.82852 97.0915 10.7069C97.7985 12.5852 95.8406 15.0577 92.724 16.2248Z" fill="url(#paint2_linear_611_5763)"/>
<g id="Group_2">
<path id="Vector_6" d="M141.017 54.2313C141.017 83.323 117.477 107.562 88.4017 107.562H88.2511C88.2469 107.562 88.2469 107.562 88.2469 107.562C59.172 107.562 35.6318 83.323 35.6318 54.2313C35.6318 53.2106 35.6611 52.3195 35.7197 51.3071C37.2843 78.9931 60.1928 101.287 88.2469 101.287C88.2469 101.287 88.2469 101.287 88.2511 101.287H88.4017C116.456 101.287 139.364 78.9931 140.929 51.3071C140.983 52.3195 141.017 53.2106 141.017 54.2313Z" fill="#875BC5"/>
</g>
<g id="Group_3">
<path id="Vector_7" d="M139.042 37.5145C138.298 35.1634 137.294 32.9629 136.503 31.3105C134.562 27.2818 133.407 22.3746 133.407 18.187C133.407 15.9029 133.884 13.8739 134.307 12.0834C135.022 9.05876 135.637 6.4483 133.867 3.7458C131.274 -0.207554 125.731 -0.496218 121.769 0.457606C117.192 1.55785 113.783 3.86711 110.172 6.31861C107.964 7.81628 105.679 9.36415 103.086 10.6234C101.383 11.4517 99.5465 12.1503 97.6012 12.7193C97.8857 11.9495 97.9066 11.1881 97.6473 10.4937C97.0072 8.79521 94.8569 7.94179 92.2423 8.27228C92.9618 5.17235 92.2674 2.5326 90.3806 1.39052C89.0001 0.558013 87.2054 0.641676 85.327 1.63315C83.5449 2.57024 81.8757 4.2227 80.629 6.28932C79.3656 8.38104 78.6796 10.6485 78.6879 12.6523C76.8305 12.1001 75.0692 11.4182 73.4335 10.6234C70.8356 9.36415 68.5514 7.81628 66.3426 6.31861C62.7323 3.86711 59.3228 1.55785 54.7461 0.457606C50.7844 -0.496218 45.2413 -0.207554 42.6518 3.7458C40.8362 6.51105 41.5264 9.48547 42.2627 12.6314C42.6811 14.4177 43.112 16.2668 43.112 18.187C43.112 22.3746 41.9531 27.2818 40.012 31.3147C39.2214 32.9629 38.2173 35.1634 37.4727 37.5145C35.8077 42.7689 34.9668 48.245 34.9668 53.7881C34.9668 67.56 40.1919 80.65 49.6799 90.6442C52.2779 93.3843 55.1728 95.8484 58.2895 97.9861C58.2895 97.9903 58.2937 97.9903 58.2978 97.9945C58.4694 98.1116 58.6409 98.2246 58.8124 98.3417C64.1505 101.906 70.0366 104.378 76.2239 105.818C80.1354 106.73 84.1724 107.144 88.2596 107.144C88.2638 107.144 88.2638 107.144 88.268 107.144C92.3594 107.144 96.3964 106.73 100.312 105.809C106.491 104.37 112.373 101.868 117.703 98.3083C119.359 97.1996 120.957 96.0157 122.484 94.7272C122.601 94.631 122.719 94.539 122.836 94.4302C124.233 93.2421 125.568 91.9745 126.835 90.64C136.323 80.6458 141.548 67.56 141.548 53.7881C141.548 48.245 140.707 42.7689 139.042 37.5145ZM100.312 104.55C96.4006 105.483 92.3636 105.889 88.268 105.889C88.2638 105.889 88.2638 105.889 88.2596 105.889C84.1682 105.889 80.1354 105.487 76.2239 104.554C70.2792 103.132 64.6232 100.718 59.4859 97.2875C56.2479 95.1246 53.2819 92.6146 50.6003 89.7866C41.9113 80.6332 36.7364 68.8485 36.318 56.3233V56.3023C36.318 55.4657 36.2218 54.629 36.2218 53.7881C36.2218 48.3705 37.025 43.0157 38.6482 37.8827C39.372 35.6027 40.3425 33.4524 41.1165 31.8376C43.1329 27.65 44.3293 22.5503 44.3293 18.187C44.3293 16.1288 43.8775 14.2086 43.4466 12.3553C42.7438 9.34323 42.1372 6.74532 43.6684 4.41096C45.2204 2.03895 48.0819 1.21063 50.8848 1.21063C52.1314 1.21063 53.3614 1.37379 54.4616 1.64153C58.8208 2.68739 62.1424 4.93807 65.6607 7.32263C67.903 8.8454 70.2248 10.4226 72.9022 11.7194C74.8433 12.6607 76.956 13.4514 79.1816 14.0622L79.4744 14.1416L80.0517 14.3006L79.9764 13.6396L79.9471 13.4054C79.7254 11.4642 80.3529 9.1006 81.6707 6.92102C82.8044 5.03848 84.3063 3.54499 85.8918 2.7083C87.3811 1.926 88.7491 1.82977 89.7531 2.43219C91.3093 3.37346 91.7361 5.95465 90.8199 8.85796L90.6986 9.23865L90.5019 9.87034L91.1797 9.71556L91.5353 9.6319C93.9282 9.08387 96.0199 9.62352 96.5052 10.9204C96.7646 11.6107 96.5386 12.4599 95.8735 13.3175L95.4049 13.9241L94.7942 14.7148L95.6057 14.5098L96.5052 14.2797C99.0487 13.6354 101.442 12.7737 103.617 11.7194C106.29 10.4226 108.612 8.8454 110.854 7.32263C114.373 4.93807 117.694 2.68739 122.053 1.64153C125.63 0.779738 130.604 0.988908 132.847 4.41096C134.336 6.67838 133.801 8.94162 133.123 11.8073C132.688 13.6605 132.19 15.7606 132.19 18.187C132.19 22.5503 133.391 27.65 135.407 31.8376C136.181 33.4524 137.16 35.6027 137.884 37.8827C139.511 43.0157 140.268 48.3705 140.268 53.7881C140.268 55.0431 140.486 56.2898 140.067 57.5323V57.5532C139.231 69.6182 134.29 80.9553 125.89 89.8075C123.204 92.6355 120.234 95.1205 116.996 97.2833C111.863 100.714 106.244 103.128 100.312 104.55Z" fill="#6F49A1"/>
</g>
<g id="Group_4">
<g id="Group_5">
<path id="Vector_8" d="M160.869 69.3881C164.324 68.9397 166.939 67.1404 166.709 65.3693C166.479 63.5981 163.492 62.5258 160.037 62.9742C156.581 63.4226 153.967 65.2219 154.196 66.9931C154.426 68.7642 157.414 69.8365 160.869 69.3881Z" fill="#6C4D9E"/>
</g>
<g id="Group_6">
<path id="Vector_9" d="M155.932 71.999C159.388 71.5506 162.002 69.7512 161.772 67.9801C161.543 66.2089 158.555 65.1366 155.1 65.5851C151.645 66.0335 149.03 67.8328 149.26 69.6039C149.49 71.3751 152.477 72.4474 155.932 71.999Z" fill="#6C4D9E"/>
</g>
<g id="Group_7">
<path id="Vector_10" d="M163.804 65.5494C168.73 64.2678 172.191 61.1823 171.534 58.6578C170.877 56.1333 166.351 55.1258 161.425 56.4074C156.499 57.6891 153.038 60.7745 153.695 63.299C154.352 65.8236 158.878 66.8311 163.804 65.5494Z" fill="#9368D0"/>
</g>
<g id="Group_8">
<path id="Vector_11" d="M167.406 59.0441C172.332 57.7624 175.793 54.6769 175.136 52.1524C174.48 49.6279 169.954 48.6204 165.028 49.902C160.102 51.1837 156.641 54.2692 157.298 56.7937C157.954 59.3182 162.48 60.3257 167.406 59.0441Z" fill="#9368D0"/>
</g>
<g id="Group_9">
<path id="Vector_12" d="M162.988 67.0796C169.01 62.0033 171.411 54.9438 168.349 51.3117C165.287 47.6797 157.924 48.8504 151.901 53.9267C145.879 59.003 143.479 66.0625 146.541 69.6946C149.602 73.3267 156.966 72.1559 162.988 67.0796Z" fill="#BC7CEA"/>
</g>
</g>
<g id="Group_10">
<g id="Group_11">
<path id="Vector_13" d="M22.4862 66.5992C22.6508 64.8209 19.972 63.1189 16.5028 62.7976C13.0336 62.4764 10.0878 63.6576 9.92316 65.4359C9.75849 67.2142 12.4373 68.9162 15.9065 69.2374C19.3757 69.5587 22.3215 68.3775 22.4862 66.5992Z" fill="#6C4D9E"/>
</g>
<g id="Group_12">
<path id="Vector_14" d="M27.5145 69.0313C27.6791 67.253 25.0003 65.551 21.5311 65.2298C18.062 64.9085 15.1161 66.0897 14.9515 67.868C14.7868 69.6463 17.4657 71.3483 20.9348 71.6695C24.404 71.9908 27.3498 70.8096 27.5145 69.0313Z" fill="#6C4D9E"/>
</g>
<g id="Group_13">
<path id="Vector_15" d="M22.8548 62.873C23.4185 60.3261 19.8467 57.3697 14.8769 56.2698C9.90706 55.1699 5.42127 56.3429 4.85758 58.8898C4.29388 61.4368 7.86573 64.3931 12.8355 65.4931C17.8053 66.593 22.2911 65.42 22.8548 62.873Z" fill="#9368D0"/>
</g>
<g id="Group_14">
<path id="Vector_16" d="M19.0179 56.5049C19.5816 53.9579 16.0097 51.0016 11.0399 49.9016C6.07014 48.8017 1.58436 49.9747 1.02066 52.5217C0.456966 55.0686 4.02882 58.025 8.99862 59.1249C13.9684 60.2248 18.4542 59.0518 19.0179 56.5049Z" fill="#9368D0"/>
</g>
<g id="Group_15">
<path id="Vector_17" d="M30.246 69.0284C33.1722 65.2861 30.5142 58.3192 24.3092 53.4674C18.1043 48.6156 10.702 47.7161 7.77585 51.4584C4.84967 55.2007 7.50766 62.1675 13.7126 67.0194C19.9176 71.8712 27.3198 72.7706 30.246 69.0284Z" fill="#BC7CEA"/>
</g>
</g>
<g id="Group_16">
<g id="Group_17">
<path id="Vector_18" d="M81.8164 67.9448C83.9416 71.325 86.0668 74.7053 88.192 78.0855C88.5016 78.5791 89.2253 78.5791 89.5349 78.0813C91.5638 74.7889 93.597 71.5007 95.6259 68.2084" fill="#964C1B"/>
<path id="Vector_19" d="M88.8573 78.6125C88.531 78.6125 88.2298 78.4494 88.0541 78.1691L81.6786 68.0284C81.6325 67.9573 81.6535 67.8569 81.7288 67.8109C81.7999 67.7649 81.9003 67.7858 81.9463 67.8611L88.3219 78.0017C88.439 78.1858 88.6398 78.2988 88.8573 78.2988C88.8573 78.2988 88.8573 78.2988 88.8615 78.2988C89.0832 78.2988 89.284 78.1858 89.397 77.9976L95.4881 68.1246C95.5341 68.0493 95.6303 68.0284 95.7056 68.0744C95.7809 68.1205 95.8018 68.2167 95.7558 68.292L89.6647 78.1649C89.489 78.441 89.192 78.6083 88.8573 78.6125C88.8615 78.6125 88.8615 78.6125 88.8573 78.6125Z" fill="white"/>
</g>
<g id="Group_18">
<path id="Vector_20" d="M95.6219 68.2043L89.535 74.2954C89.1627 74.6677 88.5603 74.6677 88.1837 74.2954L82.0968 68.2043C80.482 66.5895 80.482 63.979 82.0968 62.3684L82.1219 62.3391C85.8452 58.62 91.8735 58.62 95.5968 62.3391L95.6219 62.3684C97.2367 63.979 97.2367 66.5937 95.6219 68.2043Z" fill="#FFA124"/>
</g>
<g id="Group_19">
<path id="Vector_21" d="M95.6938 68.2041L89.6028 74.2952C89.2304 74.6675 88.628 74.6675 88.2557 74.2952L82.1646 68.2041C81.1104 67.1498 80.7464 65.6647 81.0727 64.3135C81.2442 65.0288 81.6082 65.7066 82.1646 66.263L88.2557 72.3499C88.628 72.7222 89.2304 72.7222 89.6028 72.3499L95.6938 66.263C96.2544 65.7024 96.6142 65.0288 96.7857 64.3135C97.1078 65.6647 96.7481 67.1498 95.6938 68.2041Z" fill="#FF832A"/>
</g>
<g id="Group_20">
<path id="Vector_22" d="M95.7939 62.2178L95.7604 62.1801C91.9535 58.3774 85.7662 58.3774 81.9509 62.1885L81.9341 62.2052C81.1142 63.0294 80.6582 64.1212 80.6582 65.2842C80.6582 66.4472 81.11 67.5433 81.9341 68.3674L88.0252 74.4585C88.2553 74.6886 88.5565 74.8016 88.8619 74.8016C89.1631 74.8016 89.4643 74.6886 89.6944 74.4585L95.7855 68.3674C96.6097 67.5433 97.0615 66.4472 97.0615 65.2842C97.0615 64.1212 96.6055 63.0294 95.7939 62.2178ZM88.3474 74.1364L82.2563 68.0453C81.52 67.3048 81.1142 66.3259 81.1142 65.2842C81.1142 65.0709 81.1309 64.8575 81.1686 64.6483C81.2983 63.8493 81.6748 63.1088 82.2688 62.519L82.2814 62.5022C84.097 60.6866 86.4815 59.783 88.8619 59.783C91.2423 59.783 93.6185 60.6866 95.4257 62.4897L95.4634 62.5315C96.1118 63.1758 96.5051 64.0125 96.5887 64.9161C96.6013 65.0374 96.6055 65.1587 96.6055 65.2842C96.6055 66.3259 96.1997 67.3048 95.4634 68.0453L89.3723 74.1364C89.092 74.4167 88.6318 74.4167 88.3474 74.1364Z" fill="white"/>
</g>
<g id="Group_21">
<path id="Vector_23" d="M88.8831 65.9286C91.5632 65.9286 93.7359 64.8517 93.7359 63.5232C93.7359 62.1946 91.5632 61.1177 88.8831 61.1177C86.2029 61.1177 84.0303 62.1946 84.0303 63.5232C84.0303 64.8517 86.2029 65.9286 88.8831 65.9286Z" fill="#FFBE71"/>
</g>
</g>
<g id="Group_22">
<path id="Vector_24" d="M67.6814 62.795C75.5346 62.795 81.9009 56.4287 81.9009 48.5755C81.9009 40.7223 75.5346 34.356 67.6814 34.356C59.8282 34.356 53.4619 40.7223 53.4619 48.5755C53.4619 56.4287 59.8282 62.795 67.6814 62.795Z" fill="white"/>
</g>
<g id="Group_23">
<path id="Vector_25" d="M77.5163 48.1572C77.5163 53.8174 72.7304 58.3647 66.9866 57.9673C62.5229 57.6619 58.3436 53.6207 57.9002 49.1654C57.532 45.4756 59.2054 42.1539 61.9204 40.1835C62.5103 39.7568 63.3386 39.9241 63.7026 40.5517C65.4722 43.6139 69.8941 43.6139 71.6595 40.5517V40.5475C72.0151 39.9325 72.8225 39.7401 73.3998 40.1501C75.8889 41.9406 77.5163 44.8606 77.5163 48.1572Z" fill="#2C3054"/>
</g>
<g id="Group_24">
<path id="Vector_26" d="M81.7919 48.5756C81.7919 56.4279 75.4289 62.7951 67.5724 62.7951C63.3345 62.7951 59.536 60.9418 56.9297 58.005C59.4398 60.2264 62.7405 61.5777 66.3592 61.5777C74.2115 61.5777 80.5787 55.2105 80.5787 47.3582C80.5787 43.7437 79.2274 40.4388 77.006 37.9287C79.9386 40.5392 81.7919 44.3377 81.7919 48.5756Z" fill="#DBECF2"/>
</g>
<g id="Group_25" opacity="0.75">
<path id="Vector_27" d="M77.408 48.1569C77.408 53.8213 72.6222 58.3645 66.8783 57.9671C64.3139 57.7914 61.8415 56.3816 60.1221 54.3693C61.6992 55.7164 63.6487 56.6117 65.6609 56.7497C71.409 57.1471 76.1907 52.5997 76.1907 46.9396C76.1907 44.5341 75.3289 42.3336 73.8898 40.6226C76.0442 42.4256 77.408 45.1323 77.408 48.1569Z" fill="#1A1E37"/>
</g>
<path id="Vector_28" d="M119.343 38.1504C119.038 38.2299 118.703 38.1714 118.435 37.9622C118.004 37.6275 115.662 35.9248 111.696 35.4688C108.056 35.0463 105.609 35.9583 104.944 36.247C104.412 36.4771 103.797 36.2344 103.567 35.7073C103.337 35.176 103.58 34.561 104.107 34.3309C104.894 33.9879 107.776 32.9128 111.934 33.3939C116.344 33.9042 119.008 35.7617 119.724 36.3181C120.18 36.6737 120.259 37.3305 119.904 37.7865C119.757 37.9705 119.561 38.096 119.343 38.1504Z" fill="#6F49A1"/>
<path id="Vector_29" d="M54.9844 37.4812C54.7626 37.4812 54.5409 37.4101 54.3485 37.2678C53.8883 36.9164 53.8005 36.2596 54.1519 35.8036C54.6999 35.0841 56.8167 32.6117 60.9499 31.0094C64.8531 29.495 67.9154 29.8129 68.7604 29.9468C69.3294 30.0347 69.7226 30.5701 69.6306 31.1433C69.5427 31.7122 69.0114 32.1055 68.4341 32.0134C67.7188 31.9005 65.1208 31.6369 61.703 32.9631C57.9839 34.4022 56.139 36.6403 55.8085 37.0754C55.6119 37.3389 55.2981 37.4812 54.9844 37.4812Z" fill="#6F49A1"/>
<path id="Vector_30" d="M105.584 48.5046C105.429 48.0193 108.516 46.5927 108.93 46.4128C110.671 45.6598 111.022 45.5762 112.733 45.07C114.649 44.501 115.858 44.4717 116.611 43.6141C116.77 43.4342 117.26 42.5599 116.908 41.4346C116.553 40.3008 115.749 39.8783 115.16 39.7361C114.118 39.4851 112.528 39.6859 111.989 39.7946C110.098 40.1753 108.156 40.7234 105.948 42.1625C103.914 43.4844 102.593 44.3379 101.321 45.5385C99.8273 46.9483 99.7269 46.8354 98.1874 48.9522C97.9364 49.2952 97.2168 50.4624 97.2168 51.2824C97.2168 51.9057 97.5389 52.5583 98.0368 52.9223C98.8442 53.5163 99.8189 53.1482 101.317 52.9223C102.835 52.6964 104.157 52.1944 106.429 52.345C109.018 52.5165 110.123 53.1816 111.164 53.7422C112.729 54.5873 113.264 55.7084 115.268 56.2021C115.942 56.3694 116.436 56.3778 116.908 56.2021C117.875 55.8465 118.611 54.7797 118.548 53.7422C118.523 53.2904 118.343 52.801 117.728 52.1023C117.402 51.73 116.95 51.2489 116.314 50.7678C115.653 50.27 114.762 49.7763 113.532 49.3412C112.917 49.1237 111.102 48.5338 108.512 48.5046C106.638 48.4795 105.667 48.7681 105.584 48.5046Z" fill="#1A1E37"/>
</g>
<defs>
<linearGradient id="paint0_linear_611_5763" x1="56.6314" y1="12.024" x2="128.865" y2="83.1424" gradientUnits="userSpaceOnUse">
<stop stop-color="#C895E8"/>
<stop offset="1" stop-color="#9368D0"/>
</linearGradient>
<linearGradient id="paint1_linear_611_5763" x1="72.0829" y1="-4.02546" x2="144.317" y2="67.093" gradientUnits="userSpaceOnUse">
<stop stop-color="#C895E8"/>
<stop offset="1" stop-color="#9368D0"/>
</linearGradient>
<linearGradient id="paint2_linear_611_5763" x1="73.1913" y1="-5.15081" x2="145.425" y2="65.9677" gradientUnits="userSpaceOnUse">
<stop stop-color="#C895E8"/>
<stop offset="1" stop-color="#9368D0"/>
</linearGradient>
</defs>
</svg>
